<svg xmlns="http://www.w3.org/2000/svg" viewBox="0 0 305 64">
  <g fill="none" stroke="#071510" stroke-linecap="round" stroke-linejoin="round" transform="translate(0 3) scale(.8)">
    <path d="M21 34a15 15 0 0 1 30 0" stroke-width="2.2"/><path d="M12 38c8-3 16-3 24 0s16 3 24 0" stroke-width="2"/><path d="M15 44c7-3 14-3 21 0s14 3 21 0" stroke-width="1.65"/><path d="M36 5v7M23 9l3.5 6M49 9l-3.5 6M14 18l6 3.5M58 18l-6 3.5M10 30h7M62 30h-7" stroke-width="1.65"/>
  </g>
  <text x="68" y="39" fill="#071510" font-family="Manrope,Arial,sans-serif" font-size="21" font-weight="800" letter-spacing="1.1">BALI Â· CLOSER</text>
</svg>
