<svg xmlns="http://www.w3.org/2000/svg" viewBox="0 0 320 220">
  <g fill="none" stroke="#E8C88E" stroke-linecap="round" stroke-linejoin="round" transform="translate(88 12) scale(2)"><path d="M20 36a16 16 0 0 1 32 0" stroke-width="2.2"/><path d="M8 36h56" stroke-width="2"/><path d="M19.58 31.6 9.92 29.01M21.28 27.5 12.62 22.5M23.98 23.98 16.91 16.91M27.5 21.28 22.5 12.62M31.6 19.58 29.01 9.92M36 19V9M40.4 19.58 42.99 9.92M44.5 21.28 49.5 12.62M48.02 23.98 55.09 16.91M50.72 27.5 59.38 22.5M52.42 31.6 62.08 29.01" stroke-width="1.65"/></g>
  <text x="160" y="176" text-anchor="middle" fill="#E8C88E" font-family="Manrope,Arial,sans-serif" font-size="25" font-weight="800" letter-spacing="2">BALI · БЛИЖЕ</text>
</svg>
